<svg width="104" height="105" viewBox="0 0 104 105" fill="none" xmlns="http://www.w3.org/2000/svg">
<g id="106">
<path id="Ellipse" d="M33.6493 75.6152C33.9248 75.6335 34.163 75.425 34.1813 75.1494C34.1996 74.8739 33.9911 74.6357 33.7156 74.6174L33.6493 75.6152ZM74.8641 55.6254L74.4909 55.2927L74.8641 55.6254ZM67.3484 62.1323C67.3164 62.4066 67.5127 62.6549 67.787 62.687L72.2566 63.2094C72.5308 63.2415 72.7792 63.0451 72.8112 62.7708C72.8433 62.4966 72.6469 62.2482 72.3727 62.2162L68.3997 61.7518L68.8641 57.7788C68.8962 57.5046 68.6998 57.2562 68.4255 57.2242C68.1513 57.1921 67.9029 57.3885 67.8709 57.6627L67.3484 62.1323ZM23.5863 69.6707C21.3305 65.9165 22.2735 60.567 25.9129 54.8399C29.5344 49.1411 35.7466 43.2127 43.7025 38.4323L43.1874 37.5752C35.1273 42.4182 28.79 48.448 25.0689 54.3036C21.3658 60.131 20.1732 65.932 22.7291 70.1858L23.5863 69.6707ZM43.7025 38.4323C51.6584 33.652 59.8092 30.9502 66.5412 30.428C73.3064 29.9033 78.4725 31.5822 80.7283 35.3364L81.5854 34.8213C79.0295 30.5675 73.3476 28.8971 66.4639 29.431C59.5468 29.9675 51.2475 32.7322 43.1874 37.5752L43.7025 38.4323ZM33.7156 74.6174C28.9425 74.3002 25.3641 72.6295 23.5863 69.6707L22.7291 70.1858C24.7447 73.5402 28.7111 75.2871 33.6493 75.6152L33.7156 74.6174ZM80.7283 35.3364C82.1929 37.7739 82.3125 40.8754 81.2119 44.338C80.1112 47.801 77.8017 51.5779 74.4909 55.2927L75.2374 55.958C78.6105 52.1734 81.0094 48.2764 82.165 44.6409C83.3207 41.0048 83.2447 37.5828 81.5854 34.8213L80.7283 35.3364ZM74.4909 55.2927C72.5094 57.5159 70.1741 59.7114 67.5349 61.7981L68.1552 62.5826C70.8362 60.4627 73.2145 58.2278 75.2374 55.958L74.4909 55.2927Z" fill="url(#paint0_linear_3081_2)"/>
<path id="Star" d="M35.0227 88.3471C34.2631 81.1206 39.5056 74.6466 46.7322 73.887C39.5056 74.6466 33.0317 69.4041 32.2721 62.1775C33.0317 69.4041 27.7891 75.878 20.5626 76.6376C27.7891 75.878 34.2631 81.1206 35.0227 88.3471Z" fill="url(#paint1_radial_3081_2)"/>
</g>
<defs>
<linearGradient id="paint0_linear_3081_2" x1="77.7573" y1="57.8693" x2="27.0714" y2="29.6509" gradientUnits="userSpaceOnUse">
<stop stop-color="white" stop-opacity="0.4"/>
<stop offset="0.21784" stop-color="white"/>
<stop offset="0.578937" stop-color="white" stop-opacity="0.44"/>
<stop offset="1" stop-color="white" stop-opacity="0"/>
</linearGradient>
<radialGradient id="paint1_radial_3081_2" cx="0" cy="0" r="1" gradientUnits="userSpaceOnUse" gradientTransform="translate(33.6474 75.2623) rotate(-96) scale(15.2126)">
<stop stop-color="white"/>
<stop offset="1" stop-color="#353535"/>
</radialGradient>
</defs>
</svg>
