<svg width="109" height="109" viewBox="0 0 109 109" fill="none" xmlns="http://www.w3.org/2000/svg">
<g id="105">
<path id="Ellipse" d="M71.4964 30.2676C71.2203 30.2666 70.9956 30.4896 70.9945 30.7657C70.9935 31.0418 71.2165 31.2665 71.4926 31.2676L71.4964 30.2676ZM31.6117 52.7946L32.005 53.1033L31.6117 52.7946ZM38.7059 45.8306C38.7208 45.5548 38.5093 45.3193 38.2336 45.3044L33.7401 45.0624C33.4643 45.0475 33.2288 45.259 33.2139 45.5348C33.199 45.8105 33.4105 46.0461 33.6863 46.0609L37.6805 46.2761L37.4654 50.2703C37.4505 50.546 37.662 50.7816 37.9377 50.7964C38.2135 50.8113 38.4491 50.5998 38.4639 50.3241L38.7059 45.8306ZM81.9113 35.5714C84.3973 39.1773 83.7905 44.5753 80.5162 50.5186C77.2581 56.4327 71.4286 62.7378 63.7871 68.0061L64.3547 68.8294C72.0963 63.4921 78.0443 57.0779 81.3921 51.0012C84.7238 44.9537 85.5514 39.0895 82.7346 35.0038L81.9113 35.5714ZM63.7871 68.0061C56.1456 73.2745 48.1795 76.4805 41.4934 77.4224C34.7741 78.369 29.5132 77.0163 27.0272 73.4105L26.2039 73.9781C29.0208 78.0638 34.7959 79.3758 41.6329 78.4126C48.5029 77.4448 56.6131 74.1668 64.3547 68.8294L63.7871 68.0061ZM71.4926 31.2676C76.2762 31.2858 79.952 32.7296 81.9113 35.5714L82.7346 35.0038C80.5133 31.782 76.4454 30.2864 71.4964 30.2676L71.4926 31.2676ZM27.0272 73.4105C25.4131 71.0693 25.0998 67.9813 25.9818 64.4567C26.864 60.9316 28.9328 57.0178 32.005 53.1033L31.2183 52.4859C28.0884 56.474 25.9378 60.5133 25.0117 64.2139C24.0856 67.9151 24.3753 71.3257 26.2039 73.9781L27.0272 73.4105ZM32.005 53.1033C33.8436 50.7606 36.0371 48.4234 38.5407 46.1757L37.8726 45.4316C35.3293 47.715 33.0954 50.0941 31.2183 52.4859L32.005 53.1033Z" fill="url(#paint0_linear_3081_5)"/>
<path id="Star" d="M69.3301 17.6464C70.5399 24.8113 65.7123 31.6004 58.5474 32.8101C65.7123 31.6004 72.5013 36.428 73.7111 43.5929C72.5013 36.428 77.3289 29.6389 84.4938 28.4292C77.3289 29.6389 70.5399 24.8113 69.3301 17.6464Z" fill="url(#paint1_radial_3081_5)"/>
</g>
<defs>
<linearGradient id="paint0_linear_3081_5" x1="28.5839" y1="50.7359" x2="80.9345" y2="75.7309" gradientUnits="userSpaceOnUse">
<stop stop-color="white" stop-opacity="0.4"/>
<stop offset="0.21784" stop-color="white"/>
<stop offset="0.578937" stop-color="white" stop-opacity="0.44"/>
<stop offset="1" stop-color="white" stop-opacity="0"/>
</linearGradient>
<radialGradient id="paint1_radial_3081_5" cx="0" cy="0" r="1" gradientUnits="userSpaceOnUse" gradientTransform="translate(71.5206 30.6196) rotate(80.4162) scale(15.2126)">
<stop stop-color="white"/>
<stop offset="1" stop-color="#353535"/>
</radialGradient>
</defs>
</svg>
