<svg width="218" height="218" viewBox="0 0 218 218" fill="none" xmlns="http://www.w3.org/2000/svg">
<g id="104">
<path id="Ellipse" d="M157.178 60.8756C156.905 60.8286 156.647 61.0111 156.6 61.2832C156.553 61.5553 156.735 61.814 157.007 61.861L157.178 60.8756ZM57.3602 96.3483L57.0238 95.9784L57.3602 96.3483ZM75.6329 83.0145C75.6935 82.7451 75.5241 82.4776 75.2547 82.417L70.8642 81.4302C70.5948 81.3697 70.3273 81.539 70.2668 81.8084C70.2062 82.0779 70.3755 82.3453 70.645 82.4059L74.5476 83.283L73.6705 87.1857C73.6099 87.4551 73.7793 87.7226 74.0487 87.7831C74.3181 87.8437 74.5856 87.6744 74.6461 87.405L75.6329 83.0145ZM179.662 76.1004C184.118 85.6569 180.451 98.0487 170.617 110.44C160.804 122.805 144.946 135.033 125.36 144.167L125.783 145.073C145.479 135.888 161.472 123.572 171.4 111.062C181.308 98.5772 185.271 85.7625 180.568 75.6778L179.662 76.1004ZM125.36 144.167C105.774 153.3 86.2132 157.587 70.4335 157.156C54.6204 156.724 42.7703 151.568 38.314 142.012L37.4077 142.435C42.1103 152.519 54.4743 157.721 70.4062 158.156C86.3715 158.592 106.086 154.257 125.783 145.073L125.36 144.167ZM157.007 61.861C168.05 63.7686 176.149 68.5675 179.662 76.1004L180.568 75.6778C176.86 67.7265 168.383 62.8114 157.178 60.8756L157.007 61.861ZM38.314 142.012C35.4209 135.807 35.9476 128.416 39.3744 120.585C42.8014 112.753 49.112 104.527 57.6967 96.7182L57.0238 95.9784C48.3699 103.85 41.9578 112.186 38.4583 120.184C34.9585 128.182 34.3548 135.888 37.4077 142.435L38.314 142.012ZM57.6967 96.7182C62.8374 92.042 68.7882 87.5204 75.4125 83.3273L74.8777 82.4824C68.2082 86.704 62.2106 91.2604 57.0238 95.9784L57.6967 96.7182Z" fill="url(#paint0_linear_901_271)"/>
<path id="Star" d="M157.209 30.52C157.209 47.3757 143.545 61.04 126.689 61.04C143.545 61.04 157.209 74.7043 157.209 91.56C157.209 74.7043 170.873 61.04 187.729 61.04C170.873 61.04 157.209 47.3757 157.209 30.52Z" fill="url(#paint1_radial_901_271)"/>
</g>
<defs>
<linearGradient id="paint0_linear_901_271" x1="51.2298" y1="90.47" x2="161.32" y2="167.86" gradientUnits="userSpaceOnUse">
<stop stop-color="white" stop-opacity="0.4"/>
<stop offset="0.21784" stop-color="white"/>
<stop offset="0.578937" stop-color="white" stop-opacity="0.44"/>
<stop offset="1" stop-color="white" stop-opacity="0"/>
</linearGradient>
<radialGradient id="paint1_radial_901_271" cx="0" cy="0" r="1" gradientUnits="userSpaceOnUse" gradientTransform="translate(157.209 61.04) rotate(90) scale(35.2887)">
<stop stop-color="white"/>
<stop offset="1" stop-color="#353535"/>
</radialGradient>
</defs>
</svg>
